# xmcd CD database file
#
# Track frame offsets:
#	150
#	13902
#	27835
#	41664
#	55534
#	68513
#	82145
#	96303
#	111047
#	124627
#	139008
#	153417
#	167104
#	174182
#	188247
#	200777
#	208927
#	214564
#	219495
#	225793
#	229624
#	240979
#	252515
#	264485
#	278534
#	297738
#	304119
#	311668
#	322390
#
# Disc length: 4470 seconds
#
# Revision: 0
# Processed by: cddbd v1.5.2PL0 Copyright (c) Steve Scherf et al.
# Submitted via: CDex 1.50
#
DISCID=a311741d
DTITLE=Leadbelly - The Mount Everest Of Blues Singers
DYEAR=2004
DGENRE=Blues
TTITLE0=Leadbelly - Pick A Bale Of Cotton
TTITLE1=Leadbelly - Whoa Back Buck
TTITLE2=Leadbelly - Midnight Special
TTITLE3=Leadbelly - Alabama
TTITLE4=Leadbelly - Good Morning Blues
TTITLE5=Leadbelly - Leaving Blues
TTITLE6=Leadbelly - TB Blues
TTITLE7=Leadbelly - Sail On Little Girl, Sail On
TTITLE8=Leadbelly - Roberta
TTITLE9=Leadbelly - Alberta
TTITLE10=Leadbelly - Easy Rider
TTITLE11=Leadbelly - New York City
TTITLE12=Leadbelly - Grey Goose
TTITLE13=Leadbelly - Red Cross Store Blues
TTITLE14=Leadbelly - Ham And Eggs
TTITLE15=Leadbelly - Red River In The Pines
TTITLE16=Leadbelly - Black Girl
TTITLE17=Leadbelly - You Don't Miss Your Water
TTITLE18=Leadbelly - Blind Lemon
TTITLE19=Leadbelly - Leadbelly Dance
TTITLE20=Leadbelly - In The Evening When The Sun Goes Down
TTITLE21=Leadbelly - Diggin' My Potatoes
TTITLE22=Leadbelly - Goodnight Irene
TTITLE23=Leadbelly - Looky Looky Yonder
TTITLE24=Leadbelly - John Hardy
TTITLE25=Leadbelly - There's A Man Goin' Round Takin' Names
TTITLE26=Leadbelly - Jean Harlow
TTITLE27=Leadbelly - Blood Done Signed My Name
TTITLE28=Leadbelly - Packin' Trunk Blues
EXTD=YEAR: 2004
EXTT0=
EXTT1=
EXTT2=
EXTT3=
EXTT4=
EXTT5=
EXTT6=
EXTT7=
EXTT8=
EXTT9=
EXTT10=
EXTT11=
EXTT12=
EXTT13=
EXTT14=
EXTT15=
EXTT16=
EXTT17=
EXTT18=
EXTT19=
EXTT20=
EXTT21=
EXTT22=
EXTT23=
EXTT24=
EXTT25=
EXTT26=
EXTT27=
EXTT28=
PLAYORDER=
